<?xml version="1.0" standalone="no"?>
<!DOCTYPE svg PUBLIC "-//W3C//DTD SVG 20010904//EN"
 "http://www.w3.org/TR/2001/REC-SVG-20010904/DTD/svg10.dtd">
<svg version="1.0" xmlns="http://www.w3.org/2000/svg"
 width="1280.000000pt" height="1238.000000pt" viewBox="0 0 1280.000000 1238.000000"
 preserveAspectRatio="xMidYMid meet">
<g transform="translate(0.000000,1238.000000) scale(0.100000,-0.100000)"
fill="#000000" stroke="none">
<path d="M5799 12376 c-3 -3 -73 -13 -155 -21 -184 -19 -343 -40 -454 -61
-106 -19 -787 -189 -998 -249 -368 -104 -701 -233 -972 -378 -536 -285 -832
-467 -1095 -672 -479 -373 -960 -913 -1230 -1380 -149 -258 -341 -677 -459
-1002 -182 -504 -286 -976 -376 -1712 -21 -179 -44 -356 -50 -394 -13 -85 -13
-362 0 -459 5 -40 14 -129 20 -198 6 -69 22 -206 35 -305 115 -850 134 -960
215 -1274 154 -592 422 -1180 794 -1746 62 -93 145 -206 185 -250 40 -44 165
-186 279 -315 295 -337 383 -430 507 -543 115 -104 147 -126 540 -379 302
-195 393 -248 608 -357 94 -48 229 -118 299 -155 385 -203 836 -329 1608 -450
124 -19 281 -39 350 -45 69 -6 175 -16 235 -22 316 -31 1040 23 1570 117 488
87 1205 277 1630 431 456 165 948 410 1293 642 550 370 1177 1082 1640 1861
552 930 857 1810 952 2745 6 61 15 139 21 175 14 88 6 421 -14 595 -31 261
-71 483 -123 675 -56 212 -248 780 -263 780 -3 0 -6 -224 -6 -498 0 -317 -5
-555 -13 -657 -94 -1152 -305 -1960 -740 -2830 -196 -393 -388 -688 -677
-1040 -194 -237 -515 -579 -664 -708 -351 -302 -785 -615 -1211 -870 -619
-371 -1410 -651 -2132 -756 -391 -57 -943 -52 -1538 15 -541 60 -661 81 -860
149 -171 58 -311 121 -492 222 -84 47 -211 117 -283 156 -183 98 -266 155
-460 318 -192 161 -276 224 -388 293 -245 151 -502 394 -800 756 -146 178
-525 686 -597 801 -255 408 -502 1088 -634 1749 -97 482 -130 757 -130 1080
-1 535 109 1132 335 1825 90 278 161 455 255 633 324 620 791 1177 1319 1574
966 726 1944 1147 3035 1308 237 35 369 44 635 44 481 0 866 -63 1350 -221
318 -104 803 -318 1090 -482 514 -293 953 -682 1234 -1091 280 -408 443 -819
541 -1360 84 -471 104 -661 104 -995 0 -286 -5 -355 -65 -770 -107 -754 -342
-1407 -707 -1970 -329 -507 -742 -944 -1191 -1259 -349 -245 -799 -479 -1125
-585 -433 -141 -797 -181 -1371 -151 -819 43 -1406 221 -2078 627 -262 159
-348 223 -492 368 -283 283 -470 602 -655 1120 -87 245 -134 443 -171 725 -20
145 -17 564 5 740 50 416 110 662 248 1025 95 247 250 538 388 725 202 273
548 606 836 804 241 165 686 370 946 436 287 74 875 100 1208 55 393 -54 559
-116 933 -347 633 -393 1021 -889 1171 -1498 74 -301 90 -419 90 -680 0 -213
-2 -250 -27 -392 -101 -576 -320 -986 -714 -1340 -259 -232 -476 -366 -737
-455 -125 -42 -240 -60 -443 -69 -492 -21 -925 110 -1263 383 -169 137 -374
375 -478 557 -61 106 -135 302 -169 446 -31 133 -41 350 -24 499 41 348 224
734 475 1001 153 162 258 239 506 371 85 45 157 84 160 86 10 8 -27 23 -100
39 -97 22 -285 23 -401 0 -334 -64 -719 -274 -979 -535 -99 -99 -165 -188
-247 -332 -154 -268 -219 -501 -230 -814 -12 -341 48 -601 217 -953 97 -200
141 -266 279 -424 258 -294 523 -504 816 -648 168 -83 263 -117 489 -175 289
-73 339 -80 616 -79 266 0 359 10 610 66 287 63 720 227 951 360 279 159 423
263 590 425 179 174 288 328 438 623 141 276 234 531 325 885 128 504 128 830
1 1395 -21 91 -58 228 -82 305 -295 918 -945 1531 -1975 1864 -272 88 -572
153 -929 201 -402 54 -529 63 -804 57 -349 -7 -545 -39 -875 -143 -324 -103
-567 -223 -855 -422 -609 -421 -1135 -1124 -1476 -1974 -82 -206 -199 -657
-253 -983 -51 -306 -57 -468 -31 -845 39 -568 74 -796 161 -1028 105 -279 354
-811 459 -981 78 -125 114 -169 381 -467 250 -279 381 -403 518 -490 43 -27
117 -77 165 -111 236 -170 305 -217 416 -284 493 -297 1080 -498 1720 -588
474 -68 998 -50 1482 49 331 68 844 227 1107 343 271 120 527 273 805 479 467
348 831 701 1106 1073 475 642 805 1333 939 1965 93 440 161 969 172 1344 10
321 -12 559 -87 924 -218 1059 -685 1964 -1362 2644 -253 254 -714 653 -907
785 -48 33 -356 203 -609 338 -389 206 -729 338 -1043 404 -346 73 -765 142
-1013 167 -166 17 -615 31 -626 20z"/>
</g>
</svg>
